<svg xmlns="http://www.w3.org/2000/svg" 
    xmlns:xlink="http://www.w3.org/1999/xlink" version="1.1">
    <symbol id="user" viewBox="0 0 9 10">
        <path fill="currentColor" d="M4.5.333c1.197 0 2.167 1.044 2.167 2.334C6.667 3.956 5.697 5 4.5 5 3.303 5 2.333 3.956 2.333 2.667c0-1.29.97-2.334 2.167-2.334zm0 9.334s4.333 0 4.333-1.167c0-1.4-2.112-2.917-4.333-2.917C2.28 5.583.167 7.1.167 8.5.167 9.667 4.5 9.667 4.5 9.667z"></path>
    </symbol>
    <symbol id="compare" viewBox="0 0 10 10">
        <path fill="currentColor" d="M8 2h1.984v8H8zM0 3h1.984v7H0zm4-3h2v10H4z"></path>
    </symbol>
    <symbol id="cart" viewBox="0 0 12 12">
        <path fill="currentColor" d="M11.864 3.017a.429.429 0 0 0-.327-.154H9.225V4.09c0 .563-.484 1.022-1.08 1.022-.594 0-1.078-.458-1.078-1.022V2.863H4.909V4.09c0 .563-.485 1.022-1.08 1.022-.595 0-1.078-.458-1.078-1.022V2.863H.438a.43.43 0 0 0-.327.154.472.472 0 0 0-.108.358l.776 7.134c.015.806.642 1.455 1.411 1.455h7.595c.77 0 1.396-.649 1.411-1.455l.776-7.134a.476.476 0 0 0-.108-.358z"></path>
        <path fill="currentColor" d="M3.829 4.499c.239 0 .433-.184.433-.409V1.84c0-.632.672-1.022 1.295-1.022h1.079c.655 0 1.078.401 1.078 1.022v2.25c0 .225.194.409.431.409.239 0 .433-.184.433-.409V1.84C8.577.773 7.761 0 6.636 0H5.557c-1.19 0-2.159.826-2.159 1.84v2.25c0 .225.194.409.431.409z"></path>
    </symbol>
</svg>